<svg width="484" height="212" viewBox="0 0 484 212" fill="none" xmlns="http://www.w3.org/2000/svg">
<path d="M42.294 100.641H32.9616C32.7912 99.4332 32.4432 98.3608 31.9176 97.4233C31.392 96.4716 30.7173 95.6619 29.8935 94.9943C29.0696 94.3267 28.1179 93.8153 27.0384 93.4602C25.973 93.1051 24.8153 92.9276 23.5653 92.9276C21.3068 92.9276 19.3395 93.4886 17.6634 94.6108C15.9872 95.7187 14.6875 97.3381 13.7642 99.4688C12.8409 101.585 12.3793 104.156 12.3793 107.182C12.3793 110.293 12.8409 112.906 13.7642 115.023C14.7017 117.139 16.0085 118.737 17.6847 119.817C19.3608 120.896 21.2997 121.436 23.5014 121.436C24.7372 121.436 25.8807 121.273 26.9318 120.946C27.9972 120.619 28.9418 120.143 29.7656 119.518C30.5895 118.879 31.2713 118.105 31.8111 117.196C32.3651 116.287 32.7486 115.25 32.9616 114.085L42.294 114.128C42.0526 116.131 41.4489 118.062 40.483 119.923C39.5313 121.77 38.2457 123.425 36.6264 124.888C35.0213 126.337 33.1037 127.487 30.8736 128.339C28.6577 129.178 26.1506 129.597 23.3523 129.597C19.4602 129.597 15.9801 128.716 12.9119 126.955C9.85795 125.193 7.44318 122.643 5.66761 119.305C3.90625 115.967 3.02557 111.926 3.02557 107.182C3.02557 102.423 3.92045 98.375 5.71023 95.0369C7.5 91.6989 9.92898 89.1562 12.9972 87.4091C16.0653 85.6477 19.517 84.767 23.3523 84.767C25.8807 84.767 28.2244 85.1222 30.3835 85.8324C32.5568 86.5426 34.4815 87.5795 36.1577 88.9432C37.8338 90.2926 39.1974 91.9474 40.2486 93.9077C41.3139 95.8679 41.9957 98.1122 42.294 100.641ZM69.13 103.581V110.783H49.2294V103.581H69.13ZM77.0348 129V85.3636H86.2607V121.393H104.968V129H77.0348ZM125.822 129.639C122.456 129.639 119.558 128.957 117.129 127.594C114.714 126.216 112.853 124.27 111.547 121.756C110.24 119.227 109.586 116.237 109.586 112.786C109.586 109.419 110.24 106.464 111.547 103.922C112.853 101.379 114.693 99.3977 117.065 97.9773C119.451 96.5568 122.25 95.8466 125.46 95.8466C127.619 95.8466 129.629 96.1946 131.49 96.8906C133.365 97.5724 134.998 98.6023 136.39 99.9801C137.797 101.358 138.89 103.091 139.672 105.179C140.453 107.253 140.843 109.682 140.843 112.466V114.959H113.208V109.334H132.299C132.299 108.027 132.015 106.869 131.447 105.861C130.879 104.852 130.091 104.064 129.082 103.496C128.088 102.913 126.93 102.622 125.609 102.622C124.231 102.622 123.01 102.942 121.944 103.581C120.893 104.206 120.069 105.051 119.473 106.116C118.876 107.168 118.571 108.339 118.556 109.632V114.98C118.556 116.599 118.855 117.999 119.451 119.178C120.062 120.357 120.922 121.266 122.029 121.905C123.137 122.544 124.451 122.864 125.971 122.864C126.98 122.864 127.903 122.722 128.741 122.438C129.579 122.153 130.297 121.727 130.893 121.159C131.49 120.591 131.944 119.895 132.257 119.071L140.652 119.625C140.225 121.642 139.352 123.403 138.031 124.909C136.724 126.401 135.034 127.565 132.96 128.403C130.9 129.227 128.521 129.639 125.822 129.639ZM176.399 96.2727L164.957 129H154.73L143.288 96.2727H152.876L159.673 119.689H160.014L166.79 96.2727H176.399ZM194.904 129.639C191.538 129.639 188.64 128.957 186.211 127.594C183.796 126.216 181.935 124.27 180.629 121.756C179.322 119.227 178.668 116.237 178.668 112.786C178.668 109.419 179.322 106.464 180.629 103.922C181.935 101.379 183.775 99.3977 186.147 97.9773C188.533 96.5568 191.332 95.8466 194.542 95.8466C196.701 95.8466 198.711 96.1946 200.572 96.8906C202.447 97.5724 204.08 98.6023 205.472 99.9801C206.879 101.358 207.972 103.091 208.754 105.179C209.535 107.253 209.925 109.682 209.925 112.466V114.959H182.29V109.334H201.381C201.381 108.027 201.097 106.869 200.529 105.861C199.961 104.852 199.173 104.064 198.164 103.496C197.17 102.913 196.012 102.622 194.691 102.622C193.313 102.622 192.092 102.942 191.026 103.581C189.975 104.206 189.151 105.051 188.555 106.116C187.958 107.168 187.653 108.339 187.638 109.632V114.98C187.638 116.599 187.937 117.999 188.533 119.178C189.144 120.357 190.004 121.266 191.112 121.905C192.219 122.544 193.533 122.864 195.053 122.864C196.062 122.864 196.985 122.722 197.823 122.438C198.661 122.153 199.379 121.727 199.975 121.159C200.572 120.591 201.026 119.895 201.339 119.071L209.734 119.625C209.308 121.642 208.434 123.403 207.113 124.909C205.806 126.401 204.116 127.565 202.042 128.403C199.982 129.227 197.603 129.639 194.904 129.639ZM224.925 85.3636V129H215.849V85.3636H224.925Z" fill="white"/>
<g filter="url(#filter0_d_3813_2)">
<rect x="247" y="72" width="162" height="72" rx="10" fill="white"/>
</g>
<path d="M279.329 97.3636V103.955H260.277V97.3636H279.329ZM264.602 89.7841H273.376V119.278C273.376 120.089 273.5 120.72 273.747 121.173C273.994 121.613 274.338 121.922 274.777 122.1C275.23 122.279 275.752 122.368 276.342 122.368C276.754 122.368 277.166 122.334 277.578 122.265C277.99 122.183 278.306 122.121 278.526 122.08L279.906 128.609C279.466 128.746 278.848 128.904 278.052 129.082C277.255 129.275 276.287 129.391 275.148 129.433C273.033 129.515 271.179 129.233 269.587 128.588C268.008 127.943 266.779 126.94 265.9 125.581C265.021 124.222 264.589 122.505 264.602 120.432V89.7841ZM294.066 129.597C292.047 129.597 290.248 129.247 288.669 128.547C287.09 127.833 285.841 126.782 284.921 125.396C284.015 123.995 283.561 122.251 283.561 120.164C283.561 118.406 283.884 116.93 284.529 115.736C285.175 114.541 286.054 113.58 287.166 112.852C288.278 112.125 289.541 111.575 290.956 111.205C292.384 110.834 293.88 110.573 295.446 110.422C297.286 110.23 298.769 110.051 299.895 109.886C301.02 109.708 301.837 109.447 302.346 109.104C302.854 108.76 303.108 108.252 303.108 107.58V107.456C303.108 106.152 302.696 105.142 301.872 104.428C301.062 103.714 299.908 103.357 298.412 103.357C296.833 103.357 295.576 103.707 294.642 104.408C293.709 105.094 293.091 105.959 292.789 107.003L284.674 106.344C285.086 104.421 285.896 102.76 287.104 101.359C288.312 99.9451 289.871 98.8603 291.779 98.1051C293.702 97.3362 295.926 96.9517 298.453 96.9517C300.21 96.9517 301.892 97.1577 303.499 97.5696C305.119 97.9815 306.554 98.62 307.804 99.4851C309.067 100.35 310.062 101.462 310.79 102.822C311.518 104.167 311.882 105.781 311.882 107.662V129H303.561V124.613H303.314C302.806 125.602 302.126 126.473 301.275 127.229C300.423 127.97 299.4 128.554 298.206 128.979C297.011 129.391 295.631 129.597 294.066 129.597ZM296.578 123.542C297.869 123.542 299.009 123.288 299.998 122.78C300.986 122.258 301.762 121.558 302.325 120.679C302.888 119.8 303.169 118.805 303.169 117.692V114.335C302.895 114.514 302.517 114.679 302.037 114.83C301.57 114.967 301.041 115.097 300.451 115.221C299.86 115.331 299.27 115.434 298.679 115.53C298.089 115.612 297.553 115.688 297.073 115.756C296.043 115.907 295.144 116.148 294.375 116.477C293.606 116.807 293.008 117.253 292.583 117.816C292.157 118.365 291.944 119.052 291.944 119.876C291.944 121.07 292.377 121.983 293.242 122.615C294.121 123.233 295.233 123.542 296.578 123.542ZM327.463 86.8182V129H318.689V86.8182H327.463ZM342.442 119.896L342.463 109.371H343.74L353.873 97.3636H363.945L350.33 113.264H348.25L342.442 119.896ZM334.492 129V86.8182H343.266V129H334.492ZM354.264 129L344.955 115.221L350.804 109.021L364.542 129H354.264ZM394.572 106.385L386.539 106.879C386.402 106.193 386.107 105.575 385.654 105.026C385.2 104.463 384.603 104.016 383.862 103.687C383.134 103.344 382.262 103.172 381.246 103.172C379.887 103.172 378.74 103.46 377.806 104.037C376.873 104.6 376.406 105.355 376.406 106.303C376.406 107.058 376.708 107.696 377.312 108.218C377.916 108.74 378.953 109.159 380.422 109.474L386.148 110.628C389.224 111.259 391.517 112.276 393.027 113.676C394.538 115.077 395.293 116.917 395.293 119.196C395.293 121.269 394.682 123.089 393.46 124.654C392.251 126.219 390.59 127.442 388.475 128.32C386.374 129.185 383.951 129.618 381.205 129.618C377.017 129.618 373.68 128.746 371.195 127.002C368.723 125.245 367.275 122.855 366.849 119.835L375.479 119.381C375.74 120.658 376.371 121.633 377.374 122.306C378.376 122.965 379.66 123.295 381.225 123.295C382.763 123.295 383.999 123 384.933 122.409C385.88 121.805 386.361 121.029 386.374 120.082C386.361 119.285 386.024 118.633 385.365 118.125C384.706 117.603 383.69 117.205 382.317 116.93L376.838 115.839C373.749 115.221 371.449 114.15 369.938 112.626C368.442 111.102 367.693 109.159 367.693 106.797C367.693 104.765 368.243 103.014 369.341 101.545C370.453 100.076 372.012 98.9427 374.017 98.1463C376.035 97.3499 378.397 96.9517 381.102 96.9517C385.097 96.9517 388.242 97.7962 390.535 99.4851C392.842 101.174 394.187 103.474 394.572 106.385Z" fill="url(#paint0_linear_3813_2)"/>
<defs>
<filter id="filter0_d_3813_2" x="182" y="0" width="302" height="212" filterUnits="userSpaceOnUse" color-interpolation-filters="sRGB">
<feFlood flood-opacity="0" result="BackgroundImageFix"/>
<feColorMatrix in="SourceAlpha" type="matrix" values="0 0 0 0 0 0 0 0 0 0 0 0 0 0 0 0 0 0 127 0" result="hardAlpha"/>
<feMorphology radius="20" operator="dilate" in="SourceAlpha" result="effect1_dropShadow_3813_2"/>
<feOffset dx="5" dy="-2"/>
<feGaussianBlur stdDeviation="25"/>
<feComposite in2="hardAlpha" operator="out"/>
<feColorMatrix type="matrix" values="0 0 0 0 1 0 0 0 0 1 0 0 0 0 1 0 0 0 0.25 0"/>
<feBlend mode="normal" in2="BackgroundImageFix" result="effect1_dropShadow_3813_2"/>
<feBlend mode="normal" in="SourceGraphic" in2="effect1_dropShadow_3813_2" result="shape"/>
</filter>
<linearGradient id="paint0_linear_3813_2" x1="254.154" y1="91" x2="391.74" y2="113.437" gradientUnits="userSpaceOnUse">
<stop offset="0.0181686" stop-color="#E908AE"/>
<stop offset="1" stop-color="#844BD7"/>
</linearGradient>
</defs>
</svg>
